<svg version="1.1" viewBox="0.0 0.0 754.5800524934383 502.8241469816273" fill="none" stroke="none" stroke-linecap="square" stroke-miterlimit="10" xmlns:xlink="http://www.w3.org/1999/xlink" xmlns="http://www.w3.org/2000/svg"><clipPath id="p.0"><path d="m0 0l754.5801 0l0 502.82416l-754.5801 0l0 -502.82416z" clip-rule="nonzero"/></clipPath><g clip-path="url(#p.0)"><path fill="#000000" fill-opacity="0.0" d="m0 0l754.5801 0l0 502.82416l-754.5801 0z" fill-rule="evenodd"/><g filter="url(#shadowFilter-p.1)"><use xlink:href="#p.1" transform="matrix(1.0 0.0 0.0 1.0 0.0 2.0)"/></g><defs><filter id="shadowFilter-p.1" filterUnits="userSpaceOnUse"><feGaussianBlur in="SourceAlpha" stdDeviation="2.0" result="blur"/><feComponentTransfer in="blur" color-interpolation-filters="sRGB"><feFuncR type="linear" slope="0" intercept="0.0"/><feFuncG type="linear" slope="0" intercept="0.0"/><feFuncB type="linear" slope="0" intercept="0.0"/><feFuncA type="linear" slope="0.5" intercept="0"/></feComponentTransfer></filter></defs><g id="p.1"><path fill="#000000" fill-opacity="0.0" d="m404.4777 320.87698l0 0c0 -2.0339355 1.6488342 -3.6827698 3.6827698 -3.6827698l156.82343 0c0.9767456 0 1.9134521 0.3880005 2.604126 1.0786743c0.6906738 0.6906433 1.0786743 1.6273804 1.0786743 2.6040955l0 162.30377c0 2.0339355 -1.6488647 3.6827698 -3.6828003 3.6827698l-156.82343 0c-2.0339355 0 -3.6827698 -1.6488342 -3.6827698 -3.6827698z" fill-rule="evenodd"/><path stroke="#3f51b5" stroke-width="4.0" stroke-linejoin="round" stroke-linecap="butt" d="m404.4777 320.87698l0 0c0 -2.0339355 1.6488342 -3.6827698 3.6827698 -3.6827698l156.82343 0c0.9767456 0 1.9134521 0.3880005 2.604126 1.0786743c0.6906738 0.6906433 1.0786743 1.6273804 1.0786743 2.6040955l0 162.30377c0 2.0339355 -1.6488647 3.6827698 -3.6828003 3.6827698l-156.82343 0c-2.0339355 0 -3.6827698 -1.6488342 -3.6827698 -3.6827698z" fill-rule="evenodd"/></g><path fill="#000000" fill-opacity="0.0" d="m214.08792 320.86877l169.25986 105.480316" fill-rule="evenodd"/><path stroke="#3f51b5" stroke-width="8.0" stroke-linejoin="round" stroke-linecap="butt" d="m214.08792 320.86877l128.52274 80.09354" fill-rule="evenodd"/><path fill="#3f51b5" stroke="#3f51b5" stroke-width="8.0" stroke-linecap="butt" d="m335.62198 412.17676l37.80017 7.9868164l-23.822784 -30.415741z" fill-rule="evenodd"/><path fill="#000000" fill-opacity="0.0" d="m484.72964 402.02887l-79.77951 83.93701" fill-rule="evenodd"/><path stroke="#3f51b5" stroke-width="4.0" stroke-linejoin="round" stroke-linecap="butt" d="m484.72964 402.02887l-79.77951 83.93701" fill-rule="evenodd"/><g filter="url(#shadowFilter-p.2)"><use xlink:href="#p.2" transform="matrix(1.0 0.0 0.0 1.0 0.0 2.0)"/></g><defs><filter id="shadowFilter-p.2" filterUnits="userSpaceOnUse"><feGaussianBlur in="SourceAlpha" stdDeviation="2.0" result="blur"/><feComponentTransfer in="blur" color-interpolation-filters="sRGB"><feFuncR type="linear" slope="0" intercept="0.0"/><feFuncG type="linear" slope="0" intercept="0.0"/><feFuncB type="linear" slope="0" intercept="0.0"/><feFuncA type="linear" slope="0.5" intercept="0"/></feComponentTransfer></filter></defs><g id="p.2"><path fill="#000000" fill-opacity="0.0" d="m401.70602 17.769373l0 0c0 -2.0339317 1.6488342 -3.6827583 3.6827698 -3.6827583l156.82349 0c0.9766846 0 1.9134521 0.38800335 2.604065 1.0786543c0.6906738 0.6906519 1.0786743 1.6273756 1.0786743 2.604104l0 162.30377c0 2.0339203 -1.6488037 3.6827545 -3.6827393 3.6827545l-156.82349 0c-2.0339355 0 -3.6827698 -1.6488342 -3.6827698 -3.6827545z" fill-rule="evenodd"/><path stroke="#3f51b5" stroke-width="4.0" stroke-linejoin="round" stroke-linecap="butt" d="m401.70602 17.769373l0 0c0 -2.0339317 1.6488342 -3.6827583 3.6827698 -3.6827583l156.82349 0c0.9766846 0 1.9134521 0.38800335 2.604065 1.0786543c0.6906738 0.6906519 1.0786743 1.6273756 1.0786743 2.604104l0 162.30377c0 2.0339203 -1.6488037 3.6827545 -3.6827393 3.6827545l-156.82349 0c-2.0339355 0 -3.6827698 -1.6488342 -3.6827698 -3.6827545z" fill-rule="evenodd"/></g><path fill="#000000" fill-opacity="0.0" d="m568.6667 402.02887l-83.52759 1.3858337" fill-rule="evenodd"/><path stroke="#3f51b5" stroke-width="4.0" stroke-linejoin="round" stroke-linecap="butt" d="m568.6667 402.02887l-83.52759 1.3858337" fill-rule="evenodd"/><g filter="url(#shadowFilter-p.3)"><use xlink:href="#p.3" transform="matrix(1.0 0.0 0.0 1.0 0.0 2.0)"/></g><defs><filter id="shadowFilter-p.3" filterUnits="userSpaceOnUse"><feGaussianBlur in="SourceAlpha" stdDeviation="2.0" result="blur"/><feComponentTransfer in="blur" color-interpolation-filters="sRGB"><feFuncR type="linear" slope="0" intercept="0.0"/><feFuncG type="linear" slope="0" intercept="0.0"/><feFuncB type="linear" slope="0" intercept="0.0"/><feFuncA type="linear" slope="0.5" intercept="0"/></feComponentTransfer></filter></defs><g id="p.3"><path fill="#000000" fill-opacity="0.0" d="m28.771654 180.10008l0 0c0 -2.0339355 1.6488266 -3.6827545 3.6827564 -3.6827545l156.82347 0c0.9767151 0 1.9134521 0.3880005 2.6040955 1.0786438c0.69065857 0.69065857 1.078659 1.6273804 1.078659 2.6041107l0 162.30379c0 2.033905 -1.6488342 3.6827393 -3.6827545 3.6827393l-156.82347 0c-2.0339298 0 -3.6827564 -1.6488342 -3.6827564 -3.6827393z" fill-rule="evenodd"/><path stroke="#3f51b5" stroke-width="4.0" stroke-linejoin="round" stroke-linecap="butt" d="m28.771654 180.10008l0 0c0 -2.0339355 1.6488266 -3.6827545 3.6827564 -3.6827545l156.82347 0c0.9767151 0 1.9134521 0.3880005 2.6040955 1.0786438c0.69065857 0.69065857 1.078659 1.6273804 1.078659 2.6041107l0 162.30379c0 2.033905 -1.6488342 3.6827393 -3.6827545 3.6827393l-156.82347 0c-2.0339298 0 -3.6827564 -1.6488342 -3.6827564 -3.6827393z" fill-rule="evenodd"/></g><path fill="#000000" fill-opacity="0.0" d="m191.64043 175.94751l-162.86615 169.22833" fill-rule="evenodd"/><path stroke="#3f51b5" stroke-width="4.0" stroke-linejoin="round" stroke-linecap="butt" d="m191.64043 175.94751l-162.86615 169.22833" fill-rule="evenodd"/><path fill="#000000" fill-opacity="0.0" d="m565.2493 14.527559l-81.44879 169.22835" fill-rule="evenodd"/><path stroke="#3f51b5" stroke-width="4.0" stroke-linejoin="round" stroke-linecap="butt" d="m565.2493 14.527559l-81.44879 169.22835" fill-rule="evenodd"/><path fill="#000000" fill-opacity="0.0" d="m28.771654 261.25198l164.18898 0" fill-rule="evenodd"/><path stroke="#434343" stroke-width="2.0" stroke-linejoin="round" stroke-linecap="butt" d="m28.771654 261.25198l164.18898 0" fill-rule="evenodd"/><path fill="#000000" fill-opacity="0.0" d="m404.4777 402.02887l80.724396 0.4409485" fill-rule="evenodd"/><path stroke="#434343" stroke-width="2.0" stroke-linejoin="round" stroke-linecap="butt" d="m404.4777 402.02887l80.724396 0.4409485" fill-rule="evenodd"/><path fill="#000000" fill-opacity="0.0" d="m401.70602 98.92126l164.189 0" fill-rule="evenodd"/><path stroke="#434343" stroke-width="2.0" stroke-linejoin="round" stroke-linecap="butt" d="m401.70602 98.92126l164.189 0" fill-rule="evenodd"/><path fill="#000000" fill-opacity="0.0" d="m214.08923 205.29659l166.48819 -108.22047" fill-rule="evenodd"/><path stroke="#3f51b5" stroke-width="8.0" stroke-linejoin="round" stroke-linecap="butt" d="m214.08923 205.29659l126.243256 -82.0605" fill-rule="evenodd"/><path fill="#3f51b5" stroke="#3f51b5" stroke-width="8.0" stroke-linecap="butt" d="m347.53403 134.31506l23.237701 -30.865059l-37.640778 8.707108z" fill-rule="evenodd"/><path fill="#000000" fill-opacity="0.0" d="m578.69556 73.062996l166.48816 0l0 51.71653l-166.48816 0z" fill-rule="evenodd"/><path fill="#000000" d="m604.6643 107.662994l-3.28125 0l0 -8.421875l-8.46875 0l0 8.421875l-3.296875 0l0 -18.953125l3.296875 0l0 7.890625l8.46875 0l0 -7.890625l3.28125 0l0 18.953125zm6.953491 0l-3.15625 0l0 -14.078125l3.15625 0l0 14.078125zm-3.359375 -17.734375q0 -0.734375 0.453125 -1.21875q0.46875 -0.484375 1.328125 -0.484375q0.859375 0 1.328125 0.484375q0.46875 0.484375 0.46875 1.21875q0 0.703125 -0.46875 1.1875q-0.46875 0.46875 -1.328125 0.46875q-0.859375 0 -1.328125 -0.46875q-0.453125 -0.484375 -0.453125 -1.1875zm6.244751 10.59375q0 -3.28125 1.546875 -5.234375q1.546875 -1.96875 4.09375 -1.96875q2.40625 0 3.78125 1.671875l0.15625 -1.40625l2.84375 0l0 13.65625q0 2.765625 -1.734375 4.359375q-1.71875 1.609375 -4.640625 1.609375q-1.546875 0 -3.03125 -0.65625q-1.46875 -0.640625 -2.25 -1.671875l1.5 -1.90625q1.46875 1.734375 3.59375 1.734375q1.578125 0 2.484375 -0.859375q0.921875 -0.84375 0.921875 -2.5l0 -0.953125q-1.375 1.53125 -3.65625 1.53125q-2.46875 0 -4.046875 -1.96875q-1.5625 -1.96875 -1.5625 -5.4375zm3.15625 0.265625q0 2.125 0.859375 3.34375q0.875 1.21875 2.40625 1.21875q1.90625 0 2.84375 -1.640625l0 -6.203125q-0.90625 -1.59375 -2.8125 -1.59375q-1.5625 0 -2.4375 1.234375q-0.859375 1.234375 -0.859375 3.640625zm15.626892 -5.671875q1.546875 -1.796875 3.921875 -1.796875q4.5 0 4.5625 5.140625l0 9.203125l-3.15625 0l0 -9.078125q0 -1.46875 -0.640625 -2.0625q-0.625 -0.609375 -1.84375 -0.609375q-1.90625 0 -2.84375 1.6875l0 10.0625l-3.15625 0l0 -20.0l3.15625 0l0 7.453125zm31.546326 -3.75l-5.921875 0l0 16.296875l-3.265625 0l0 -16.296875l-5.859375 0l0 -2.65625l15.046875 0l0 2.65625zm-1.1234741 9.125q0 -2.0625 0.8125 -3.71875q0.828125 -1.671875 2.3125 -2.5625q1.484375 -0.890625 3.40625 -0.890625q2.84375 0 4.625 1.84375q1.78125 1.828125 1.921875 4.859375l0.015625 0.75q0 2.078125 -0.8125 3.71875q-0.796875 1.640625 -2.28125 2.546875q-1.484375 0.890625 -3.4375 0.890625q-2.984375 0 -4.78125 -1.984375q-1.78125 -1.984375 -1.78125 -5.296875l0 -0.15625zm3.15625 0.28125q0 2.171875 0.890625 3.40625q0.90625 1.21875 2.5 1.21875q1.609375 0 2.5 -1.25q0.890625 -1.25 0.890625 -3.65625q0 -2.140625 -0.921875 -3.390625q-0.90625 -1.25 -2.484375 -1.25q-1.546875 0 -2.46875 1.234375q-0.90625 1.234375 -0.90625 3.6875zm17.191956 0.84375l-1.40625 1.453125l0 4.59375l-3.171875 0l0 -20.0l3.171875 0l0 11.546875l0.984375 -1.25l3.890625 -4.375l3.796875 0l-5.234375 5.859375l5.796875 8.21875l-3.65625 0l-4.171875 -6.046875zm15.278442 6.3125q-3.015625 0 -4.890625 -1.890625q-1.859375 -1.90625 -1.859375 -5.046875l0 -0.390625q0 -2.109375 0.8125 -3.765625q0.8125 -1.671875 2.28125 -2.59375q1.484375 -0.921875 3.28125 -0.921875q2.875 0 4.4375 1.84375q1.578125 1.828125 1.578125 5.1875l0 1.265625l-9.203125 0q0.140625 1.75 1.15625 2.765625q1.03125 1.015625 2.578125 1.015625q2.171875 0 3.546875 -1.75l1.703125 1.625q-0.84375 1.265625 -2.265625 1.96875q-1.40625 0.6875 -3.15625 0.6875zm-0.390625 -12.078125q-1.296875 0 -2.09375 0.921875q-0.796875 0.90625 -1.015625 2.53125l6.015625 0l0 -0.234375q-0.09375 -1.578125 -0.84375 -2.390625q-0.734375 -0.828125 -2.0625 -0.828125zm11.42926 -2.265625l0.078125 1.625q1.5625 -1.890625 4.109375 -1.890625q4.390625 0 4.46875 5.03125l0 9.3125l-3.15625 0l0 -9.125q0 -1.34375 -0.578125 -1.984375q-0.578125 -0.640625 -1.890625 -0.640625q-1.921875 0 -2.859375 1.734375l0 10.015625l-3.15625 0l0 -14.078125l2.984375 0z" fill-rule="nonzero"/><path fill="#000000" fill-opacity="0.0" d="m578.69556 376.1706l166.48816 0l0 51.716553l-166.48816 0z" fill-rule="evenodd"/><path fill="#000000" d="m592.9143 408.1456l8.609375 0l0 2.625l-11.90625 0l0 -18.953125l3.296875 0l0 16.328125zm10.233948 -4.546875q0 -2.0625 0.8125 -3.71875q0.828125 -1.671875 2.3125 -2.5625q1.484375 -0.890625 3.40625 -0.890625q2.84375 0 4.625 1.84375q1.78125 1.828125 1.921875 4.859375l0.015625 0.75q0 2.078125 -0.8125 3.71875q-0.796875 1.640625 -2.28125 2.546875q-1.484375 0.890625 -3.4375 0.890625q-2.984375 0 -4.78125 -1.984375q-1.78125 -1.984375 -1.78125 -5.296875l0 -0.15625zm3.15625 0.28125q0 2.171875 0.890625 3.40625q0.90625 1.21875 2.5 1.21875q1.609375 0 2.5 -1.25q0.890625 -1.25 0.890625 -3.65625q0 -2.140625 -0.921875 -3.390625q-0.90625 -1.25 -2.484375 -1.25q-1.546875 0 -2.46875 1.234375q-0.90625 1.234375 -0.90625 3.6875zm24.973206 2.53125l2.25 -9.71875l3.078125 0l-3.84375 14.078125l-2.59375 0l-3.015625 -9.671875l-2.96875 9.671875l-2.609375 0l-3.859375 -14.078125l3.09375 0l2.28125 9.609375l2.890625 -9.609375l2.375 0l2.921875 9.71875zm27.307373 -11.9375l-5.921875 0l0 16.296875l-3.265625 0l0 -16.296875l-5.859375 0l0 -2.65625l15.046875 0l0 2.65625zm-1.1234741 9.125q0 -2.0625 0.8125 -3.71875q0.828125 -1.671875 2.3125 -2.5625q1.484375 -0.890625 3.40625 -0.890625q2.84375 0 4.625 1.84375q1.78125 1.828125 1.921875 4.859375l0.015625 0.75q0 2.078125 -0.8125 3.71875q-0.796875 1.640625 -2.28125 2.546875q-1.484375 0.890625 -3.4375 0.890625q-2.984375 0 -4.78125 -1.984375q-1.78125 -1.984375 -1.78125 -5.296875l0 -0.15625zm3.15625 0.28125q0 2.171875 0.890625 3.40625q0.90625 1.21875 2.5 1.21875q1.609375 0 2.5 -1.25q0.890625 -1.25 0.890625 -3.65625q0 -2.140625 -0.921875 -3.390625q-0.90625 -1.25 -2.484375 -1.25q-1.546875 0 -2.46875 1.234375q-0.90625 1.234375 -0.90625 3.6875zm17.191956 0.84375l-1.40625 1.453125l0 4.59375l-3.171875 0l0 -20.0l3.171875 0l0 11.546875l0.984375 -1.25l3.890625 -4.375l3.796875 0l-5.234375 5.859375l5.796875 8.21875l-3.65625 0l-4.171875 -6.046875zm15.278442 6.3125q-3.015625 0 -4.890625 -1.890625q-1.859375 -1.90625 -1.859375 -5.046875l0 -0.390625q0 -2.109375 0.8125 -3.765625q0.8125 -1.671875 2.28125 -2.59375q1.484375 -0.921875 3.28125 -0.921875q2.875 0 4.4375 1.84375q1.578125 1.828125 1.578125 5.1875l0 1.265625l-9.203125 0q0.140625 1.75 1.15625 2.765625q1.03125 1.015625 2.578125 1.015625q2.171875 0 3.546875 -1.75l1.703125 1.625q-0.84375 1.265625 -2.265625 1.96875q-1.40625 0.6875 -3.15625 0.6875zm-0.390625 -12.078125q-1.296875 0 -2.09375 0.921875q-0.796875 0.90625 -1.015625 2.53125l6.015625 0l0 -0.234375q-0.09375 -1.578125 -0.84375 -2.390625q-0.734375 -0.828125 -2.0625 -0.828125zm11.42926 -2.265625l0.078125 1.625q1.5625 -1.890625 4.109375 -1.890625q4.390625 0 4.46875 5.03125l0 9.3125l-3.15625 0l0 -9.125q0 -1.34375 -0.578125 -1.984375q-0.578125 -0.640625 -1.890625 -0.640625q-1.921875 0 -2.859375 1.734375l0 10.015625l-3.15625 0l0 -14.078125l2.984375 0z" fill-rule="nonzero"/></g></svg>